<?xml version="1.0" encoding="UTF-8" standalone="no"?>
<!-- Created with Inkscape (http://www.inkscape.org/) -->

<svg
   xmlns:dc="http://purl.org/dc/elements/1.1/"
   xmlns:cc="http://creativecommons.org/ns#"
   xmlns:rdf="http://www.w3.org/1999/02/22-rdf-syntax-ns#"
   xmlns:svg="http://www.w3.org/2000/svg"
   xmlns="http://www.w3.org/2000/svg"
   xmlns:sodipodi="http://sodipodi.sourceforge.net/DTD/sodipodi-0.dtd"
   xmlns:inkscape="http://www.inkscape.org/namespaces/inkscape"
   width="500"
   height="500"
   viewBox="0 0 132.29166 132.29167"
   version="1.1"
   id="svg8"
   inkscape:version="0.92.4 (5da689c313, 2019-01-14)"
   sodipodi:docname="raios.svg">
  <defs
     id="defs2" />
  <sodipodi:namedview
     id="base"
     pagecolor="#ffffff"
     bordercolor="#666666"
     borderopacity="1.0"
     inkscape:pageopacity="0.0"
     inkscape:pageshadow="2"
     inkscape:zoom="0.98994949"
     inkscape:cx="127.85595"
     inkscape:cy="286.73172"
     inkscape:document-units="mm"
     inkscape:current-layer="layer1"
     showgrid="false"
     units="px"
     inkscape:window-width="1366"
     inkscape:window-height="705"
     inkscape:window-x="-8"
     inkscape:window-y="-8"
     inkscape:window-maximized="1" />
  <metadata
     id="metadata5">
    <rdf:RDF>
      <cc:Work
         rdf:about="">
        <dc:format>image/svg+xml</dc:format>
        <dc:type
           rdf:resource="http://purl.org/dc/dcmitype/StillImage" />
        <dc:title />
      </cc:Work>
    </rdf:RDF>
  </metadata>
  <g
     inkscape:label="Camada 1"
     inkscape:groupmode="layer"
     id="layer1"
     transform="translate(0,-164.70832)">
    <path
       sodipodi:type="star"
       style="opacity:1;fill:#40a8ba;fill-opacity:1;stroke:none;stroke-width:0.06692136;stroke-linecap:round;stroke-linejoin:round;stroke-miterlimit:4;stroke-dasharray:none;stroke-dashoffset:0;stroke-opacity:1;paint-order:markers stroke fill"
       id="path826"
       sodipodi:sides="50"
       sodipodi:cx="66.428474"
       sodipodi:cy="231.67554"
       sodipodi:r1="62.965168"
       sodipodi:r2="51.229528"
       sodipodi:arg1="0.5543075"
       sodipodi:arg2="0.60863465"
       inkscape:flatsided="false"
       inkscape:rounded="0"
       inkscape:randomized="0"
       d="m 119.96556,264.81754 -11.50687,-3.85163 6.93092,10.30028 -10.9334,-5.26346 5.5853,11.08773 -10.1875,-6.59228 4.1516,11.70033 -9.280938,-7.81712 2.652426,12.1284 -8.228013,-8.9187 1.11142,12.3652 -7.045323,-9.87961 -0.447115,12.407 -5.751526,-10.68472 -1.998598,12.25312 -4.367022,-11.32132 -3.518562,11.90601 -2.913649,-11.77939 -4.983037,11.37114 -1.414325,-12.05168 -6.368925,10.65694 0.107303,-12.13392 -7.654373,9.77467 1.62724,-12.02478 -8.819106,8.73824 3.121514,-11.72602 -9.844757,7.56401 4.566559,-11.24233 -10.715149,6.27049 5.939587,-10.58133 -11.416558,4.87808 7.218945,-9.75347 -11.937921,3.40874 8.384455,-8.77178 -12.2710156,1.88564 9.4177376,-7.65177 L 6.7662952,251.80106 17.068792,245.38999 4.7143522,244.16471 15.739131,239.09544 3.6356778,236.3314 15.208872,232.68387 3.5472833,228.42466 15.486377,226.2564 4.4505627,220.56919 l 12.1167053,-0.6548 -10.2359972,-7.02551 12.1032302,0.86899 -9.2747532,-8.25303 11.8988802,2.37907 -8.167241,-9.35038 11.506877,3.85164 -6.930926,-10.30028 10.933403,5.26346 -5.585306,-11.08774 10.187504,6.59228 -4.151603,-11.70033 9.280941,7.81713 -2.652427,-12.1284 8.228013,8.91869 -1.111419,-12.3652 7.045323,9.87961 0.447115,-12.40699 5.751526,10.68472 1.998598,-12.25313 4.367022,11.32133 3.518562,-11.90602 2.913649,11.77939 4.983037,-11.37114 1.414324,12.05168 6.368926,-10.65693 -0.107304,12.13391 7.654373,-9.77466 -1.62724,12.02478 8.819107,-8.73824 -3.121514,11.72602 9.844752,-7.56401 -4.566555,11.24232 10.715155,-6.27049 -5.93959,10.58134 11.41656,-4.87809 -7.21895,9.75347 11.93792,-3.40874 -8.38445,8.77179 12.27101,-1.88565 -9.41774,7.65177 12.41059,-0.33281 -10.30249,6.41108 12.35444,1.22527 -11.02478,5.06928 12.10345,2.76403 -11.57319,3.64754 11.66159,4.2592 -11.9391,2.16827 11.03582,5.6872 -12.11671,0.6548 10.236,7.02551 -12.10323,-0.86898 9.27475,8.25302 -11.89888,-2.37907 z"
       inkscape:transform-center-x="-2.4190476e-06" />
    <path
       inkscape:transform-center-x="-1.736399e-06"
       d="m -149.4337,110.05243 -15.61229,-8.50286 11.69559,14.02245 -14.42349,-10.39255 9.84589,15.37773 -13.00723,-12.11835 7.84092,16.49049 -11.38583,-13.65303 5.71228,17.34318 -9.58487,-14.97239 3.49356,17.92236 -7.63275,-16.05564 1.21974,18.21891 -5.56026,-16.88567 -1.07331,18.22811 -3.40008,-17.44941 -3.34943,17.94986 -1.18628,-17.73795 -5.57274,17.38852 1.04623,-17.74677 -7.70815,16.55297 3.26224,-17.47571 -9.72201,15.45635 5.42681,-16.92903 -11.58254,14.11598 7.50577,-16.11539 -13.2604,12.553 9.46638,-15.04759 -14.72915,10.79204 11.2777,-13.74247 -15.96561,8.86088 12.91117,-12.22064 -16.95029,6.79 14.34102,-10.50608 -17.66764,4.61202 15.54469,-8.625836 -18.10636,2.361313 16.50321,-6.60955 -18.25954,0.07336 17.20149,-4.48903 -18.12476,-2.215741 17.62847,-2.297716 -17.70413,-4.469903 17.77745,-0.07017 -17.0043,-6.653572 17.64605,2.158493 -16.0363,-8.73231 17.23638,4.35311 -14.8154,-10.673335 16.55488,6.479075 -13.36085,-12.446034 15.61229,8.502862 -11.69559,-14.022452 14.42349,10.392554 -9.84589,-15.377728 13.00722,12.118348 -7.84091,-16.490488 11.38583,13.65303 -5.71228,-17.343182 9.58487,14.972394 -3.49356,-17.922365 7.63275,16.055635 -1.21974,-18.218901 5.56026,16.88567 1.0733,-18.228115 3.40009,17.449407 3.34943,-17.949859 1.18628,17.737956 5.57273,-17.388524 -1.04623,17.746767 7.70816,-16.552961 -3.26224,17.475701 9.722,-15.456349 -5.4268,16.929034 11.58254,-14.115981 -7.50578,16.115385 13.26041,-12.552995 -9.46639,15.047587 14.72916,-10.792041 -11.27771,13.742479 15.96562,-8.86089 -12.91117,12.220644 16.95028,-6.789997 -14.34101,10.506083 17.66764,-4.612022 -15.54469,8.625833 18.10636,-2.361313 -16.50322,6.60955 18.25954,-0.07336 -17.20148,4.48903 18.12475,2.215741 -17.62846,2.297716 17.70412,4.469903 -17.77744,0.07016 17.0043,6.653572 -17.64606,-2.158493 16.0363,8.73231 -17.23638,-4.35311 14.8154,10.673331 -16.55487,-6.479071 z"
       inkscape:randomized="0"
       inkscape:rounded="0"
       inkscape:flatsided="false"
       sodipodi:arg2="0.58163367"
       sodipodi:arg1="0.5543075"
       sodipodi:r2="36.157207"
       sodipodi:r1="53.893818"
       sodipodi:cy="81.685173"
       sodipodi:cx="-195.25774"
       sodipodi:sides="50"
       id="path828"
       style="opacity:1;fill:#ffffff;fill-opacity:1;stroke:none;stroke-width:0.05728005;stroke-linecap:round;stroke-linejoin:round;stroke-miterlimit:4;stroke-dasharray:none;stroke-dashoffset:0;stroke-opacity:1;paint-order:markers stroke fill"
       sodipodi:type="star"
       transform="matrix(0.83976407,-0.07496811,0.07496811,0.83976407,224.27512,148.44116)" />
  </g>
</svg>
